<mxfile host="app.diagrams.net" modified="2022-04-08T12:26:18.262Z" agent="5.0 (Windows NT 10.0; WOW64) AppleWebKit/537.36 (KHTML, like Gecko) Chrome/86.0.4240.198 Safari/537.36" etag="VAIgAeBHYfkMvzYmAdpv" version="17.4.0" type="github">
  <diagram id="yX4JlD2XJ49cNifu15De" name="Page-1">
    <mxGraphModel dx="1002" dy="685" grid="1" gridSize="10" guides="1" tooltips="1" connect="1" arrows="1" fold="1" page="1" pageScale="1" pageWidth="827" pageHeight="1169" math="0" shadow="0">
      <root>
        <mxCell id="0" />
        <mxCell id="1" parent="0" />
        <mxCell id="sOjoA4uLG9KZKxS9Kc0K-1" value="性能测试知道极限&amp;amp;度在哪里" style="rounded=1;whiteSpace=wrap;html=1;" vertex="1" parent="1">
          <mxGeometry x="120" y="160" width="120" height="60" as="geometry" />
        </mxCell>
        <mxCell id="sOjoA4uLG9KZKxS9Kc0K-2" value="写作能力" style="rounded=1;whiteSpace=wrap;html=1;" vertex="1" parent="1">
          <mxGeometry x="120" y="280" width="120" height="60" as="geometry" />
        </mxCell>
        <mxCell id="sOjoA4uLG9KZKxS9Kc0K-3" value="计算机底层&amp;amp;数据结构与算法" style="rounded=1;whiteSpace=wrap;html=1;" vertex="1" parent="1">
          <mxGeometry x="120" y="400" width="120" height="60" as="geometry" />
        </mxCell>
      </root>
    </mxGraphModel>
  </diagram>
</mxfile>
